<svg width="1024" height="1024" viewBox="0 0 1024 1024" fill="none" xmlns="http://www.w3.org/2000/svg">
  <defs>
    <linearGradient id="bgB" x1="128" y1="112" x2="918" y2="928" gradientUnits="userSpaceOnUse">
      <stop stop-color="#143A39"/>
      <stop offset="1" stop-color="#2C7A69"/>
    </linearGradient>
    <linearGradient id="goldB" x1="352" y1="278" x2="682" y2="734" gradientUnits="userSpaceOnUse">
      <stop stop-color="#F3D08A"/>
      <stop offset="1" stop-color="#C89743"/>
    </linearGradient>
    <radialGradient id="haloB" cx="0" cy="0" r="1" gradientUnits="userSpaceOnUse" gradientTransform="translate(512 514) rotate(90) scale(362)">
      <stop stop-color="#3B9582"/>
      <stop offset="1" stop-color="#143A39" stop-opacity="0"/>
    </radialGradient>
    <filter id="shadowB" x="214" y="180" width="596" height="664" filterUnits="userSpaceOnUse" color-interpolation-filters="sRGB">
      <feFlood flood-opacity="0" result="BackgroundImageFix"/>
      <feColorMatrix in="SourceAlpha" type="matrix" values="0 0 0 0 0 0 0 0 0 0 0 0 0 0 0 0 0 0 127 0" result="hardAlpha"/>
      <feOffset dy="24"/>
      <feGaussianBlur stdDeviation="28"/>
      <feColorMatrix type="matrix" values="0 0 0 0 0.0156863 0 0 0 0 0.133333 0 0 0 0 0.12549 0 0 0 0.28 0"/>
      <feBlend mode="normal" in2="BackgroundImageFix" result="effect1_dropShadow_1_1"/>
      <feBlend mode="normal" in="SourceGraphic" in2="effect1_dropShadow_1_1" result="shape"/>
    </filter>
  </defs>

  <rect x="40" y="40" width="944" height="944" rx="216" fill="url(#bgB)"/>
  <circle cx="512" cy="512" r="362" fill="url(#haloB)"/>
  <circle cx="512" cy="512" r="296" stroke="#DDEDE7" stroke-opacity="0.2" stroke-width="4"/>

  <g filter="url(#shadowB)">
    <path d="M312 324C312 295.281 335.281 272 364 272H402.318C439.73 272 474.697 290.832 495.342 322.126L512 347.378L528.658 322.126C549.303 290.832 584.27 272 621.682 272H660C688.719 272 712 295.281 712 324V700C712 728.719 688.719 752 660 752H616.332C579.952 752 545.849 734.074 524.998 704.049L512 685.33L499.002 704.049C478.151 734.074 444.048 752 407.668 752H364C335.281 752 312 728.719 312 700V324Z" fill="#F8FAF8"/>
    <path d="M388 350C388 338.954 396.954 330 408 330H425.066C447.394 330 468.693 339.579 483.347 356.298L512 388.989L540.653 356.298C555.307 339.579 576.606 330 598.934 330H616C627.046 330 636 338.954 636 350V674C636 685.046 627.046 694 616 694H604.333C576.605 694 550.704 680.152 534.413 657.095L512 625.371L489.587 657.095C473.296 680.152 447.395 694 419.667 694H408C396.954 694 388 685.046 388 674V350Z" fill="url(#goldB)"/>
  </g>

  <path d="M514 432C540.51 432 562 410.51 562 384C562 357.49 540.51 336 514 336C487.49 336 466 357.49 466 384C466 410.51 487.49 432 514 432Z" fill="#F7EEE2"/>
  <path d="M514 354V414" stroke="#1F5E57" stroke-width="26" stroke-linecap="round"/>
  <path d="M484 384H544" stroke="#1F5E57" stroke-width="26" stroke-linecap="round"/>
</svg>
